<svg width="477" height="478" viewBox="0 0 477 478" fill="none" xmlns="http://www.w3.org/2000/svg">
<path d="M214.949 1.4C213.249 2.2 211.549 3.6 211.149 4.5C210.849 5.5 209.949 11.8 209.349 18.5L208.249 30.7L203.449 32.4C200.849 33.4 194.949 36.6 190.449 39.6L182.249 45L171.449 40C165.549 37.2 159.549 35 158.149 35C154.149 35 151.449 38.4 140.649 57.2C127.249 80.5 127.149 79.6 141.649 90.3L152.149 98.2L151.249 105.6C150.849 109.8 150.849 116.3 151.349 120.5L152.149 128.1L145.649 132.7C142.049 135.2 137.149 138.9 134.849 140.7C128.149 146.1 128.549 147.8 141.249 169.7C147.049 179.9 152.849 188.8 153.949 189.6C157.149 191.8 159.049 191.4 171.149 186L182.449 181L187.249 184.4C192.149 187.9 205.549 195 207.249 195C207.749 195 208.749 200.7 209.349 207.6C210.049 214.5 210.949 220.9 211.549 222C213.349 225.3 218.149 226 238.549 226C258.949 226 263.749 225.3 265.549 222C266.149 220.9 267.049 214.5 267.749 207.6C268.349 200.7 269.349 195 269.849 195C271.449 195 285.049 187.8 289.849 184.4L294.549 181L305.649 186C311.749 188.7 317.749 191 319.049 191C320.349 191 322.549 190 323.849 188.7C326.249 186.5 344.549 155.6 346.549 150.6C348.249 146 345.849 142.7 335.549 135.3L326.049 128.5V112.8L325.949 97.2L335.149 90.6C346.049 82.7 346.949 81.8 346.849 77.6C346.749 74.3 326.849 38.7 323.749 36.2C320.949 34 316.549 34.9 305.649 40L294.849 45L286.649 39.6C282.149 36.6 276.249 33.4 273.649 32.4L268.849 30.7L267.749 18.3C267.049 11.5 266.149 5.1 265.549 4C263.749 0.699997 258.949 -3.36766e-06 238.149 -3.36766e-06C223.549 0.0999966 217.249 0.399997 214.949 1.4ZM252.349 28.6C253.649 41.5 254.449 43.2 260.449 45.1C267.249 47.3 277.249 52.9 283.549 57.9C287.749 61.3 290.849 63 292.649 63C294.149 63 299.749 61 305.149 58.5C310.449 56 314.949 54 315.049 54C315.449 54 327.549 74.7 327.549 75.3C327.549 75.5 323.349 78.7 318.149 82.4C307.649 89.8 306.749 91.4 308.449 99.1C309.049 101.5 309.549 107.8 309.549 113C309.549 118.2 309.049 124.5 308.449 126.9C306.749 134.6 307.649 136.2 318.149 143.6C323.349 147.3 327.549 150.5 327.549 150.7C327.549 151.2 316.449 170.1 315.549 171.3C315.149 171.7 310.449 170 305.049 167.5C299.749 165 294.149 163 292.649 163C291.049 163 287.249 165.1 282.649 168.6C275.049 174.3 266.849 178.8 260.249 181C258.149 181.6 255.849 183.2 255.049 184.3C253.949 186.1 251.549 201.7 251.549 207.5C251.549 208.8 249.649 209 239.149 209C224.749 209 226.049 210.2 224.949 196.2C224.149 185.6 222.749 182.9 216.749 180.9C209.849 178.7 199.849 173.2 193.549 168.1C189.449 164.8 186.249 163 184.549 163C183.049 163 177.449 165 172.049 167.5C166.649 170 162.149 171.9 162.049 171.8C161.549 171.4 149.549 150.9 149.549 150.6C149.549 150.5 153.549 147.5 158.549 143.9C168.949 136.4 170.249 134.4 168.649 127C167.249 120.6 167.249 105 168.649 99.1C170.349 91.5 169.349 89.7 159.749 82.8C154.949 79.5 150.649 76.3 150.249 76C149.549 75.4 161.049 54 162.049 54C162.249 54 166.749 56 172.149 58.5C177.449 61 182.949 63 184.449 63C186.049 63 189.849 60.9 194.449 57.4C202.049 51.8 210.249 47.2 216.649 45.1C222.749 43.1 223.649 41.4 224.849 28.6L225.949 17H238.549H251.249L252.349 28.6Z" fill="#BDBDBD"/>
<path d="M226.649 69.6C218.649 71.7 212.249 75.6 206.149 82C200.049 88.4 197.149 93.4 195.049 101.7C190.849 117.6 195.549 134 207.549 145.4C213.949 151.5 218.949 154.4 227.249 156.5C255.649 163.9 283.549 142.4 283.549 113.1C283.449 83.3 255.549 61.8 226.649 69.6ZM251.249 87.6C263.349 93.4 269.849 107.6 266.149 120.2C261.849 135 247.149 144.3 233.049 141.1C213.049 136.6 203.549 113.8 214.849 97.4C223.349 85.1 237.849 81.1 251.249 87.6Z" fill="#BDBDBD"/>
<path d="M132.049 233C130.949 234.2 125.449 252 117.949 278.3L105.649 321.6L93.4487 346.8C84.0487 366.1 80.6487 372.2 79.1487 372.5C77.9487 372.7 66.0487 374.4 52.5487 376.1C38.3487 377.9 27.1487 379.8 25.8487 380.6C24.5487 381.4 23.3487 383.1 22.9487 384.4C22.6487 385.8 25.3487 406.1 29.0487 429.7C34.7487 466.2 36.0487 472.8 37.8487 474.8L39.9487 477L88.8487 476.8L137.849 476.5L139.849 473.8L141.949 471L136.449 444.2L130.949 417.4L140.749 381.5L150.449 345.5L158.649 291.2L166.849 236.9L164.849 234.2C162.849 231.5 162.749 231.5 148.349 231.2C134.949 231 133.749 231.1 132.049 233ZM148.949 248.7C148.749 249.7 145.549 270.1 141.949 294L135.449 337.5L124.749 376.9L114.149 416.3L118.349 437.9C120.749 449.8 122.649 459.8 122.549 460.2C122.549 460.7 106.349 461 86.6487 461H50.7487L50.2487 458.8C49.0487 453.6 40.2487 394.9 40.6487 394.5C40.9487 394.3 51.8487 392.7 65.0487 391C82.1487 388.8 89.7487 387.4 91.3487 386.2C92.7487 385.2 99.1487 373.2 107.449 356L121.249 327.5L132.549 287.2L143.949 247H146.649C148.749 247 149.249 247.4 148.949 248.7Z" fill="#BDBDBD"/>
<path d="M188.749 233C187.549 234.2 186.549 235.3 186.549 235.6C186.549 235.8 179.149 268.3 170.049 307.6C160.949 347 153.549 381.1 153.549 383.4C153.549 392.4 164.449 472.1 165.949 474.5C167.049 476.1 168.849 477.1 171.749 477.5C174.149 477.8 205.949 478 242.349 477.8L308.749 477.5L310.849 475C312.849 472.8 313.649 467.4 318.849 427.3L324.549 382.2L307.549 309C298.249 268.8 290.549 235.7 290.549 235.5C290.549 235.3 289.549 234.2 288.349 233C286.349 231.2 284.849 231 271.849 231C257.949 231 257.349 231.1 255.049 233.5C253.649 234.8 252.549 236.9 252.549 238.2C252.549 239.5 254.149 250.3 256.049 262.4C257.949 274.4 259.549 284.4 259.549 284.6C259.549 284.7 257.449 283.9 254.849 282.7C250.749 280.9 248.249 280.5 238.549 280.5C228.849 280.5 226.349 280.9 222.349 282.7C219.649 283.9 217.549 284.7 217.549 284.6C217.549 284.4 219.149 274.4 221.049 262.4C222.949 250.3 224.549 239.5 224.549 238.2C224.549 236.9 223.449 234.8 222.049 233.5C219.749 231.1 219.149 231 205.249 231C192.249 231 190.749 231.2 188.749 233ZM206.549 247.9C206.549 248.4 202.049 277.7 196.549 313C191.049 348.4 186.549 378.5 186.549 380C186.549 381.5 187.349 383.8 188.349 385C190.049 387.1 192.049 387.5 214.449 389.8L238.749 392.3L262.849 389.8C285.049 387.5 287.049 387.1 288.749 385C289.749 383.8 290.549 381.5 290.549 380C290.549 378.5 286.049 348.4 280.549 313C275.049 277.7 270.549 248.4 270.549 247.9C270.549 247.4 271.849 247 273.349 247H276.149L291.949 315.4L307.649 383.7L303.049 419.6C300.549 439.4 298.249 456.7 297.949 458.3L297.349 461H238.549H179.749L179.149 458.3C178.849 456.7 176.549 439.3 173.949 419.6L169.249 383.7L185.049 315.3L200.949 247H203.749C205.249 247 206.549 247.4 206.549 247.9ZM251.049 299.5C261.149 304.4 266.949 313.8 266.849 325C266.749 336.1 261.349 345 251.449 349.9C225.549 362.8 199.049 334 214.449 309.8C222.449 297.3 237.749 293 251.049 299.5ZM218.649 365.1C226.949 369.2 236.649 370.7 245.549 369.2C253.049 367.9 262.249 363.8 267.349 359.5C271.049 356.4 271.049 356.5 272.349 365.8C273.449 373.2 275.349 372.3 253.549 374.4C239.249 375.7 236.749 375.7 221.049 374C211.749 373 204.049 372.1 203.949 372.1C203.749 371.9 205.649 359.4 206.149 358.2C206.449 357.2 207.449 357.5 209.749 359.5C211.449 360.9 215.449 363.4 218.649 365.1Z" fill="#BDBDBD"/>
<path d="M312.749 233.3C311.349 234.8 310.549 236.9 310.549 239.1C310.549 241 314.149 265.9 318.449 294.5L326.449 346.5L336.049 381.9L345.649 417.2L340.549 442.1C337.849 455.8 335.549 468.4 335.549 469.9C335.549 471.9 336.549 473.6 338.649 475.4L341.749 478H388.049C414.949 478 435.449 477.6 436.949 477C438.349 476.5 439.949 475.2 440.449 474.1C441.049 473 444.549 453 448.249 429.6C455.349 383.9 455.349 382.8 450.249 380.2C449.049 379.6 437.249 377.7 424.049 376C410.849 374.3 399.149 372.7 397.949 372.5C396.349 372.2 393.049 366.1 383.649 346.8L371.449 321.5L359.049 278C349.249 243.5 346.249 234.2 344.549 232.8C342.649 231.3 340.249 231 328.649 231C315.549 231 314.749 231.1 312.749 233.3ZM344.449 287.2L355.849 327.5L369.649 356C378.049 373.5 384.349 385.1 385.749 386.2C387.349 387.4 395.149 388.8 412.049 391C425.149 392.7 436.149 394.3 436.349 394.5C436.749 394.9 428.549 449.2 426.849 458.2L426.349 461H390.449C370.649 461 354.549 460.7 354.549 460.2C354.449 459.8 356.349 449.8 358.749 437.8L362.949 416.2L352.549 377.8L342.149 339.5L335.049 293.2L327.949 247H330.549C333.149 247 333.249 247.5 344.449 287.2Z" fill="#BDBDBD"/>
<path d="M33.1487 281.1C21.9487 283.8 9.74867 294 4.44867 305.4C-13.6513 344.2 26.8487 383.9 65.2487 365C91.7487 351.9 98.2487 315.7 77.8487 293.9C72.2487 287.9 66.6487 284.5 58.4487 281.9C51.9487 279.9 40.0487 279.5 33.1487 281.1ZM56.7487 298.8C73.9487 306.4 78.9487 329.2 66.4487 343.4C54.9487 356.5 35.1487 356.5 23.6487 343.4C3.64867 320.7 29.0487 286.5 56.7487 298.8Z" fill="#BDBDBD"/>
<path d="M418.349 281.9C406.349 285.8 396.749 294.3 391.149 306C388.549 311.6 388.049 313.8 387.749 322.7C387.349 331.2 387.649 333.9 389.549 339.4C399.949 370.7 440.549 380 464.049 356.5C483.849 336.6 480.149 302.2 456.549 287C445.849 280.1 430.449 278.1 418.349 281.9ZM443.949 298.9C461.249 307.3 465.949 329.2 453.449 343.4C442.749 355.6 424.949 356.6 412.849 345.7C404.349 338 401.449 325.7 405.549 314.8C408.149 307.7 416.349 299.8 423.349 297.5C429.449 295.6 438.249 296.2 443.949 298.9Z" fill="#BDBDBD"/>
</svg>
